<?xml version="1.0" encoding="utf-8"?>
<!-- Generator: Adobe Illustrator 17.0.0, SVG Export Plug-In . SVG Version: 6.00 Build 0)  -->
<!DOCTYPE svg PUBLIC "-//W3C//DTD SVG 1.1//EN" "http://www.w3.org/Graphics/SVG/1.1/DTD/svg11.dtd">
<svg version="1.1" id="Capa_1" xmlns="http://www.w3.org/2000/svg" xmlns:xlink="http://www.w3.org/1999/xlink" x="0px" y="0px"
	 width="29.491px" height="24.306px" viewBox="0 0 29.491 24.306" enable-background="new 0 0 29.491 24.306" xml:space="preserve">
<path d="M25.949,10.003c-0.688,0-1.329,0.199-1.873,0.539c-0.086-0.219-0.18-0.435-0.282-0.646c1.545-0.38,2.693-1.771,2.693-3.435
	c0-1.956-1.587-3.543-3.543-3.543c-1.601,0-2.952,1.063-3.392,2.522c-0.475-0.26-0.974-0.482-1.491-0.663
	c0.143-0.386,0.226-0.799,0.226-1.235C18.287,1.586,16.703,0,14.745,0c-1.956,0-3.542,1.586-3.542,3.542
	c0,0.436,0.083,0.85,0.227,1.235C11.133,4.882,10.841,5,10.557,5.132c-0.321-1.625-1.755-2.85-3.473-2.85
	c-1.956,0-3.543,1.585-3.543,3.542c0,1.601,1.063,2.952,2.521,3.392C5.904,9.484,5.76,9.764,5.627,10.048
	C5.041,9.62,4.321,9.366,3.542,9.366C1.585,9.366,0,10.95,0,12.907c0,1.956,1.585,3.543,3.542,3.543
	c0.477,0,0.929-0.096,1.344-0.267c0.9,4.622,4.979,8.122,9.859,8.122c4.677,0,8.615-3.211,9.73-7.543
	c0.45,0.206,0.948,0.324,1.474,0.324c1.957,0,3.542-1.586,3.542-3.542S27.906,10.003,25.949,10.003z M23.296,15.884
	c-0.766,4.024-4.307,7.079-8.551,7.079c-4.433,0-8.099-3.333-8.634-7.622c-0.044-0.355-0.068-0.716-0.068-1.081
	c0-1.095,0.205-2.142,0.573-3.106c0.249-0.649,0.574-1.261,0.963-1.826c0.763-1.104,1.77-2.021,2.944-2.676
	c0.515-0.286,1.06-0.523,1.629-0.701c0.819-0.256,1.69-0.395,2.593-0.395c0.903,0,1.773,0.139,2.593,0.395
	c0.749,0.233,1.454,0.569,2.101,0.985c1.178,0.757,2.161,1.788,2.859,3.005c0.292,0.509,0.534,1.051,0.72,1.617
	c0.278,0.852,0.432,1.759,0.432,2.702C23.45,14.815,23.395,15.357,23.296,15.884z M12.045,14.827c0-1.491,1.209-2.7,2.7-2.7
	c1.491,0,2.7,1.209,2.7,2.7c0,1.491-1.209,2.7-2.7,2.7C13.254,17.527,12.045,16.318,12.045,14.827z M11.281,12.64
	c-0.586,0-1.061-0.475-1.061-1.062c0-0.584,0.475-1.058,1.061-1.058c0.584,0,1.059,0.474,1.059,1.058
	C12.34,12.165,11.865,12.64,11.281,12.64z M19.059,11.58c0,0.585-0.475,1.06-1.06,1.06c-0.585,0-1.06-0.475-1.06-1.06
	c0-0.585,0.475-1.06,1.06-1.06C18.584,10.52,19.059,10.995,19.059,11.58z M11.365,18.065h7.299c0,2.016-1.634,3.649-3.65,3.649
	C12.997,21.714,11.365,20.081,11.365,18.065z"/>
</svg>
