<?xml version="1.0" encoding="utf-8"?>
<!-- Generator: Adobe Illustrator 17.0.0, SVG Export Plug-In . SVG Version: 6.00 Build 0)  -->
<!DOCTYPE svg PUBLIC "-//W3C//DTD SVG 1.1//EN" "http://www.w3.org/Graphics/SVG/1.1/DTD/svg11.dtd">
<svg version="1.1" id="Capa_1" xmlns="http://www.w3.org/2000/svg" xmlns:xlink="http://www.w3.org/1999/xlink" x="0px" y="0px"
	 width="22.495px" height="23.838px" viewBox="0 0 22.495 23.838" enable-background="new 0 0 22.495 23.838" xml:space="preserve">
<path d="M11.248,0C5.045,0,0,3.98,0,11.038c0,7.057,5.045,12.8,11.248,12.8s11.247-5.743,11.247-12.8C22.495,3.98,17.451,0,11.248,0
	z M4.882,11.038l4.402-3.274l-1.761,3.303c0,0,8.721,1.813,13.442-0.028c0,0.576-0.039,1.143-0.113,1.695H1.643
	c-0.073-0.553-0.114-1.119-0.114-1.695L4.882,11.038L4.882,11.038z M11.248,22.098c-4.386,0-8.092-3.305-9.301-7.847h2.905
	c0,1.588,1.288,2.879,2.877,2.879c1.591,0,2.879-1.291,2.879-2.879h1.325c0.084,1.513,1.329,2.718,2.863,2.718
	s2.776-1.205,2.861-2.718h2.89C19.338,18.793,15.633,22.098,11.248,22.098z M13.122,19.627c-2.315,1.172-3.7,0.032-3.715,0.02
	c-0.079-0.066-0.188-0.041-0.244,0.057c-0.055,0.098-0.033,0.23,0.046,0.298c0.039,0.036,0.706,0.591,1.884,0.591
	c0.593,0,1.32-0.143,2.161-0.565c0.089-0.049,0.133-0.173,0.095-0.282C13.312,19.635,13.21,19.58,13.122,19.627z"/>
</svg>
