<?xml version="1.0" encoding="utf-8"?>
<!-- Generator: Adobe Illustrator 17.0.0, SVG Export Plug-In . SVG Version: 6.00 Build 0)  -->
<!DOCTYPE svg PUBLIC "-//W3C//DTD SVG 1.1//EN" "http://www.w3.org/Graphics/SVG/1.1/DTD/svg11.dtd">
<svg version="1.1" id="Capa_1" xmlns="http://www.w3.org/2000/svg" xmlns:xlink="http://www.w3.org/1999/xlink" x="0px" y="0px"
	 width="15.051px" height="22.572px" viewBox="0 0 15.051 22.572" enable-background="new 0 0 15.051 22.572" xml:space="preserve">
<path d="M7.524,0.554c-3.95,0-7.155,3.205-7.155,7.157c0,0.772,0.126,1.513,0.352,2.209c0.507,1.789,6.353,12.099,6.353,12.099
	s6.209-9.015,7.148-11.802c0.293-0.78,0.46-1.622,0.46-2.506C14.682,3.758,11.479,0.554,7.524,0.554z M7.524,12.301
	c-2.521,0-4.564-2.044-4.564-4.564c0-2.523,2.044-4.567,4.564-4.567c2.522,0,4.566,2.045,4.566,4.567
	C12.09,10.256,10.047,12.301,7.524,12.301z M9.256,4.958C9.203,4.952,9.149,4.949,9.093,4.949c-0.561,0-1.196,0.271-1.567,0.785
	C7.155,5.22,6.52,4.949,5.96,4.949c-0.055,0-0.111,0.002-0.164,0.009c-0.648,0.068-1.102,0.284-1.387,0.66
	c-0.283,0.372-0.376,0.88-0.273,1.512c0.251,1.534,3.09,3.995,3.21,4.099c0.055,0.048,0.124,0.07,0.191,0.07
	c0.069,0,0.137-0.023,0.193-0.07c0.12-0.106,2.935-2.565,3.184-4.099c0.104-0.63,0.013-1.139-0.269-1.51
	C10.357,5.242,9.903,5.026,9.256,4.958z M10.51,7.367c0,0-0.11-1.646-1.572-1.865C8.938,5.501,10.694,5.246,10.51,7.367z"/>
</svg>
