<?xml version="1.0" encoding="utf-8"?>
<!-- Generator: Adobe Illustrator 17.0.0, SVG Export Plug-In . SVG Version: 6.00 Build 0)  -->
<!DOCTYPE svg PUBLIC "-//W3C//DTD SVG 1.1//EN" "http://www.w3.org/Graphics/SVG/1.1/DTD/svg11.dtd">
<svg version="1.1" id="Capa_1" xmlns="http://www.w3.org/2000/svg" xmlns:xlink="http://www.w3.org/1999/xlink" x="0px" y="0px"
	 width="27.203px" height="19.615px" viewBox="0 0 27.203 19.615" enable-background="new 0 0 27.203 19.615" xml:space="preserve">
<path d="M20.472,0.228c-0.923-0.25-4.062-0.183-4.062-0.183c0.296,0.357,0.476,0.945,0.476,1.392c0,1.316-1.47,2.382-3.285,2.382
	c-1.812,0-3.282-1.066-3.282-2.382c0-0.447,0.18-1.035,0.475-1.392c0,0-3.215-0.201-4.128,0.247C5.752,0.741,0,6.957,0,6.957
	l3.008,3.008l3.656-3.658v13.307h13.808V6.243l3.723,3.723l3.008-3.008C27.203,6.957,21.396,0.477,20.472,0.228z M18.271,10.375
	c-0.334,2.048-4.094,5.334-4.254,5.474c-0.074,0.063-0.166,0.095-0.257,0.095s-0.183-0.031-0.255-0.095
	c-0.161-0.138-3.953-3.425-4.291-5.474C9.079,9.531,9.201,8.853,9.58,8.356c0.382-0.501,0.987-0.79,1.854-0.882
	c0.069-0.007,0.144-0.011,0.219-0.011c0.748,0,1.596,0.362,2.093,1.049c0.494-0.687,1.343-1.049,2.093-1.049
	c0.074,0,0.148,0.003,0.218,0.011c0.864,0.093,1.472,0.381,1.854,0.882C18.288,8.854,18.41,9.532,18.271,10.375z M15.533,8.458
	c-0.053-0.007-0.108-0.009-0.165-0.009c-0.569,0-1.216,0.275-1.593,0.797c-0.377-0.522-1.021-0.797-1.59-0.797
	c-0.058,0-0.113,0.002-0.166,0.009c-0.658,0.07-1.119,0.289-1.411,0.67c-0.288,0.378-0.38,0.894-0.276,1.536
	c0.257,1.558,3.14,4.059,3.262,4.164c0.056,0.048,0.127,0.072,0.195,0.072c0.069,0,0.139-0.024,0.195-0.073
	c0.119-0.105,2.981-2.605,3.234-4.163c0.105-0.641,0.014-1.158-0.275-1.536C16.654,8.747,16.191,8.528,15.533,8.458z"/>
</svg>
