<svg width="20.293" xmlns="http://www.w3.org/2000/svg" height="22.023" viewBox="0 0 20.293 22.023" xmlns:xlink="http://www.w3.org/1999/xlink" enable-background="new 0 0 20.293 22.023">
<g fill-rule="evenodd">
<path d="m0,15.865h3.705v6.158h-3.705z"/>
<path d="m0,12.565h3.705v2.199h-3.705z"/>
<path d="m0,9.438h3.705v2.201h-3.705z"/>
<path d="m0,6.255h3.705v2.2h-3.705z"/>
<path d="m16.588,15.865h3.706v6.158h-3.706z"/>
<path d="m16.588,12.565h3.706v2.199h-3.706z"/>
<path d="m16.588,9.438h3.706v2.201h-3.706z"/>
<path d="m16.588,6.255h3.706v2.2h-3.706z"/>
<path d="m5.616,9.612h3.706v12.411h-3.706z"/>
<path d="m5.616,6.312h3.706v2.2h-3.706z"/>
<path d="m5.616,3.185h3.706v2.2h-3.706z"/>
<path d="m5.616,0h3.706v2.2h-3.706z"/>
<path d="m10.958,14.477h3.706v7.547h-3.706z"/>
<path d="m10.958,11.175h3.706v2.201h-3.706z"/>
<path d="m10.958,8.048h3.706v2.201h-3.706z"/>
<path d="m10.958,4.864h3.706v2.2h-3.706z"/>
</g>
</svg>
